<svg width="15" height="18" viewBox="0 0 15 18" fill="none" xmlns="http://www.w3.org/2000/svg">
<path d="M14.5114 10.7607C14.5114 12.1068 14.1122 13.4226 13.3644 14.5418C12.6166 15.661 11.5537 16.5333 10.3101 17.0484C9.06648 17.5635 7.69808 17.6983 6.3779 17.4357C5.05772 17.1731 3.84505 16.5249 2.89325 15.5731C1.94146 14.6213 1.29327 13.4087 1.03067 12.0885C0.768072 10.7683 0.902848 9.39989 1.41796 8.1563C1.93307 6.91272 2.80537 5.84981 3.92457 5.10199C5.04377 4.35417 6.35958 3.95502 7.70563 3.95502V6.41006C6.84514 6.41006 6.00398 6.66522 5.28852 7.14328C4.57305 7.62134 4.01541 8.30082 3.68612 9.09581C3.35682 9.89079 3.27067 10.7656 3.43854 11.6095C3.60641 12.4535 4.02077 13.2287 4.62923 13.8371C5.23768 14.4456 6.0129 14.86 6.85685 15.0278C7.7008 15.1957 8.57558 15.1095 9.37056 14.7803C10.1655 14.451 10.845 13.8933 11.3231 13.1779C11.8012 12.4624 12.0563 11.6212 12.0563 10.7607H14.5114Z" fill="#0066FF"/>
<path d="M13.6606 5.23106L6.64224 9.28314L6.64224 1.17898L13.6606 5.23106Z" fill="#0066FF"/>
</svg>
