<svg width="145" height="150" viewBox="0 0 145 150" fill="none" xmlns="http://www.w3.org/2000/svg">
<path d="M78.8077 34.7822L78.784 43.2041L72.8863 44.0297L72.9147 33.9235L78.8077 34.7822Z" fill="black"/>
<path fill-rule="evenodd" clip-rule="evenodd" d="M55.0238 57.9519C65.5104 57.9519 74.0114 49.4508 74.0114 38.9642C74.0114 28.4776 65.5104 19.9766 55.0238 19.9766C44.5372 19.9766 36.0361 28.4776 36.0361 38.9642C36.0361 49.4508 44.5372 57.9519 55.0238 57.9519ZM55.0237 49.5299C60.8589 49.5299 65.5894 44.7995 65.5894 38.9642C65.5894 33.129 60.8589 28.3985 55.0237 28.3985C49.1884 28.3985 44.4579 33.129 44.4579 38.9642C44.4579 44.7995 49.1884 49.5299 55.0237 49.5299Z" fill="black"/>
<path d="M50.7357 15H59.1577L59.9999 20.8954H49.8936L50.7357 15Z" fill="black"/>
<path d="M59.0816 62.7754L50.6597 62.7754L49.8175 56.88L59.9238 56.88L59.0816 62.7754Z" fill="black"/>
<path d="M34.841 25.2745L40.6977 19.2224L45.5199 22.7169L38.4919 29.9794L34.841 25.2745Z" fill="black"/>
<path d="M74.9763 52.5008L69.1196 58.553L64.2975 55.0585L71.3255 47.7959L74.9763 52.5008Z" fill="black"/>
<path d="M69.0039 19.1554L74.9125 25.1569L71.3023 29.893L64.212 22.6912L69.0039 19.1554Z" fill="black"/>
<path d="M40.8134 58.6199L34.9049 52.6184L38.5151 47.8823L45.6053 55.0841L40.8134 58.6199Z" fill="black"/>
<path d="M31.0092 42.9932L31.0329 34.5712L36.9306 33.7456L36.9022 43.8519L31.0092 42.9932Z" fill="black"/>
<path d="M33.0828 61.263L30.4347 63.0699L28.905 61.3969L32.0828 59.2286L33.0828 61.263Z" fill="black"/>
<path fill-rule="evenodd" clip-rule="evenodd" d="M20.688 58.7906C22.9472 62.0815 27.4465 62.918 30.7375 60.6588C34.0284 58.3997 34.8649 53.9004 32.6057 50.6094C30.3466 47.3184 25.8473 46.482 22.5563 48.7411C19.2653 51.0003 18.4289 55.4996 20.688 58.7906ZM23.331 56.9762C24.5881 58.8075 27.0918 59.2729 28.923 58.0158C30.7543 56.7587 31.2197 54.255 29.9626 52.4238C28.7055 50.5925 26.2019 50.1271 24.3706 51.3842C22.5393 52.6413 22.0739 55.1449 23.331 56.9762Z" fill="black"/>
<path d="M33.2434 48.1916L35.0578 50.8346L33.3891 52.369L31.2119 49.1973L33.2434 48.1916Z" fill="black"/>
<path d="M20.0481 61.1032L18.2337 58.4602L19.9024 56.9258L22.0796 60.0974L20.0481 61.1032Z" fill="black"/>
<path d="M26.5949 45.4168L29.756 45.951L29.6982 48.2171L25.9049 47.5762L26.5949 45.4168Z" fill="black"/>
<path d="M26.6971 63.8779L23.536 63.3437L23.5938 61.0775L27.3871 61.7185L26.6971 63.8779Z" fill="black"/>
<path d="M35.875 54.8198L35.2645 57.967L33.0004 57.8544L33.733 54.0778L35.875 54.8198Z" fill="black"/>
<path d="M17.417 54.4749L18.0275 51.3277L20.2916 51.4403L19.559 55.217L17.417 54.4749Z" fill="black"/>
<path d="M20.2087 48.0315L22.8568 46.2246L24.3865 47.8976L21.2087 50.0659L20.2087 48.0315Z" fill="black"/>
<path d="M41.2792 66.3573L40.1303 67.1412L39.4666 66.4154L40.8453 65.4747L41.2792 66.3573Z" fill="black"/>
<path fill-rule="evenodd" clip-rule="evenodd" d="M35.9021 65.2847C36.8822 66.7125 38.8342 67.0754 40.262 66.0952C41.6898 65.1151 42.0527 63.1631 41.0725 61.7353C40.0924 60.3075 38.1404 59.9446 36.7126 60.9247C35.2848 61.9049 34.9219 63.8569 35.9021 65.2847ZM37.0485 64.4975C37.5939 65.292 38.6801 65.4939 39.4746 64.9485C40.2691 64.4031 40.471 63.3169 39.9256 62.5224C39.3802 61.7279 38.2941 61.526 37.4996 62.0714C36.7051 62.6168 36.5031 63.703 37.0485 64.4975Z" fill="black"/>
<path d="M41.3487 60.6863L42.1359 61.8329L41.4119 62.4986L40.4673 61.1226L41.3487 60.6863Z" fill="black"/>
<path d="M35.6244 66.288L34.8372 65.1413L35.5612 64.4756L36.5058 65.8516L35.6244 66.288Z" fill="black"/>
<path d="M38.4643 59.4825L39.8357 59.7143L39.8106 60.6974L38.1649 60.4193L38.4643 59.4825Z" fill="black"/>
<path d="M38.5089 67.4918L37.1374 67.2601L37.1625 66.2769L38.8082 66.555L38.5089 67.4918Z" fill="black"/>
<path d="M42.4906 63.562L42.2257 64.9274L41.2435 64.8785L41.5613 63.24L42.4906 63.562Z" fill="black"/>
<path d="M34.4825 63.4123L34.7474 62.0469L35.7297 62.0957L35.4118 63.7342L34.4825 63.4123Z" fill="black"/>
<path d="M35.694 60.6168L36.8429 59.8329L37.5065 60.5587L36.1279 61.4994L35.694 60.6168Z" fill="black"/>
<circle cx="55" cy="37" r="5" fill="black"/>
<path d="M46.6824 133.547C38.5161 133.547 31.2094 132.344 24.7624 129.937C18.4013 127.444 13.3296 124.178 9.54729 120.137L22.3125 102.344C25.4071 105.008 29.1464 107.071 33.5304 108.533C37.9144 109.908 41.9545 110.596 45.6508 110.596C49.691 110.596 52.7856 110.037 54.9346 108.92C57.0836 107.802 58.1581 106.427 58.1581 104.793C58.1581 103.16 57.2555 102 55.4504 101.312C53.7311 100.538 50.2067 100.152 44.8772 100.152C38.2582 100.152 34.0891 100.237 32.3699 100.409V77.3289C33.4874 77.4149 37.6565 77.4579 44.8772 77.4579C52.7856 77.4579 56.7398 76.0395 56.7398 73.2028C56.7398 69.5065 52.4847 67.6584 43.9746 67.6584C35.9802 67.6584 28.9744 70.1512 22.9572 75.1369L10.7078 58.8903C19.3038 49.4347 31.3384 44.7068 46.8113 44.7068C58.416 44.7068 67.27 46.8558 73.3732 51.1539C79.5624 55.4519 82.6569 61.2543 82.6569 68.5609C82.6569 73.1169 80.8518 77.243 77.2414 80.9393C73.717 84.5496 69.2041 86.7846 63.7026 87.6442C68.9462 88.246 73.6311 90.352 77.7572 93.9624C81.9693 97.5727 84.0753 102.172 84.0753 107.759C84.0753 115.41 80.6369 121.642 73.76 126.456C66.8831 131.183 57.8573 133.547 46.6824 133.547Z" fill="black"/>
<path d="M38.6824 120.547C30.5161 120.547 23.2094 119.344 16.7624 116.937C10.4013 114.444 5.32957 111.178 1.54729 107.137L14.3125 89.3435C17.4071 92.0083 21.1464 94.0714 25.5304 95.5327C29.9144 96.9081 33.9545 97.5958 37.6508 97.5958C41.691 97.5958 44.7856 97.037 46.9346 95.9195C49.0836 94.802 50.1581 93.4267 50.1581 91.7934C50.1581 90.1602 49.2555 88.9997 47.4504 88.312C45.7311 87.5384 42.2067 87.1515 36.8772 87.1515C30.2582 87.1515 26.0891 87.2375 24.3699 87.4094V64.3289C25.4874 64.4149 29.6565 64.4579 36.8772 64.4579C44.7856 64.4579 48.7398 63.0395 48.7398 60.2028C48.7398 56.5065 44.4847 54.6584 35.9746 54.6584C27.9802 54.6584 20.9744 57.1512 14.9572 62.1369L2.70776 45.8903C11.3038 36.4347 23.3384 31.7068 38.8113 31.7068C50.416 31.7068 59.27 33.8558 65.3732 38.1539C71.5624 42.4519 74.6569 48.2543 74.6569 55.5609C74.6569 60.1169 72.8518 64.243 69.2414 67.9393C65.717 71.5496 61.2041 73.7846 55.7026 74.6442C60.9462 75.246 65.6311 77.352 69.7572 80.9624C73.9693 84.5727 76.0753 89.1716 76.0753 94.7591C76.0753 102.41 72.6369 108.642 65.76 113.456C58.8831 118.183 49.8573 120.547 38.6824 120.547Z" fill="#AAFF3F"/>
<path d="M35.0828 98.263L32.4347 100.07L30.905 98.3969L34.0828 96.2286L35.0828 98.263Z" fill="black"/>
<path fill-rule="evenodd" clip-rule="evenodd" d="M22.688 95.7906C24.9472 99.0815 29.4465 99.918 32.7375 97.6588C36.0284 95.3997 36.8649 90.9004 34.6057 87.6094C32.3466 84.3184 27.8473 83.482 24.5563 85.7411C21.2653 88.0003 20.4289 92.4996 22.688 95.7906ZM25.331 93.9762C26.5881 95.8075 29.0918 96.2729 30.923 95.0158C32.7543 93.7587 33.2197 91.255 31.9626 89.4238C30.7055 87.5925 28.2019 87.1271 26.3706 88.3842C24.5393 89.6413 24.0739 92.1449 25.331 93.9762Z" fill="black"/>
<path d="M35.2434 85.1916L37.0578 87.8346L35.3891 89.369L33.2119 86.1973L35.2434 85.1916Z" fill="black"/>
<path d="M22.0481 98.1032L20.2337 95.4602L21.9024 93.9258L24.0796 97.0974L22.0481 98.1032Z" fill="black"/>
<path d="M28.5949 82.4168L31.756 82.951L31.6982 85.2171L27.9049 84.5761L28.5949 82.4168Z" fill="black"/>
<path d="M28.6971 100.878L25.536 100.344L25.5938 98.0775L29.3871 98.7185L28.6971 100.878Z" fill="black"/>
<path d="M37.875 91.8198L37.2645 94.967L35.0004 94.8544L35.733 91.0778L37.875 91.8198Z" fill="black"/>
<path d="M19.417 91.4749L20.0275 88.3277L22.2916 88.4403L21.559 92.217L19.417 91.4749Z" fill="black"/>
<path d="M22.2087 85.0315L24.8568 83.2246L26.3865 84.8976L23.2087 87.0659L22.2087 85.0315Z" fill="black"/>
</svg>
