<svg width="174" height="178" viewBox="0 0 174 178" fill="none" xmlns="http://www.w3.org/2000/svg">
<path d="M74.5 26.5L77.6386 24.9511L74.8458 19.2919L71.5241 24.6578L74.5 26.5ZM93.5 65L90.3614 66.5489L93.9695 73.8601L96.7847 66.2085L93.5 65ZM113 12L116.36 11.0187L113.382 0.824887L109.715 10.7915L113 12ZM142.5 113L152.084 73.7383L113.29 85.0691L142.5 113ZM57.9759 59.8422L77.4759 28.3422L71.5241 24.6578L52.0241 56.1578L57.9759 59.8422ZM71.3614 28.0489L90.3614 66.5489L96.6386 63.4511L77.6386 24.9511L71.3614 28.0489ZM96.7847 66.2085L116.285 13.2085L109.715 10.7915L90.2153 63.7915L96.7847 66.2085ZM109.64 12.9813L130.309 83.7446L137.028 81.7821L116.36 11.0187L109.64 12.9813Z" fill="#FF3333"/>
<path d="M110.434 163H21.4419V137.364C35.0493 127.784 45.0099 120.708 51.3237 116.136C57.6375 111.564 62.9172 107.427 67.1627 103.726C71.4082 100.025 73.9119 97.358 74.6739 95.7252C75.5448 94.0923 75.9802 92.1872 75.9802 90.0101C75.9802 87.5063 74.7828 85.4924 72.3879 83.9684C69.993 82.3355 66.9994 81.5191 63.407 81.5191C53.1743 81.5191 43.5947 85.2747 34.6683 92.786L16.7065 70.9053C22.5849 64.5915 29.6063 59.965 37.7707 57.0258C46.044 53.9777 54.3717 52.4537 62.7539 52.4537C76.7967 52.4537 88.0636 55.9916 96.5546 63.0675C105.154 70.0344 109.454 79.0153 109.454 90.0101C109.454 97.6302 106.896 104.815 101.78 111.564C96.6635 118.313 87.737 125.879 75.0005 134.261H110.434V163Z" fill="black"/>
<path d="M95.687 154H6.69483V128.364C20.3022 118.784 30.2628 111.708 36.5766 107.136C42.8904 102.564 48.1701 98.4275 52.4156 94.7263C56.6611 91.0251 59.1649 88.358 59.9269 86.7252C60.7977 85.0923 61.2332 83.1872 61.2332 81.0101C61.2332 78.5063 60.0357 76.4924 57.6408 74.9684C55.2459 73.3355 52.2523 72.5191 48.66 72.5191C38.4272 72.5191 28.8476 76.2747 19.9212 83.786L1.95946 61.9053C7.83785 55.5915 14.8592 50.965 23.0237 48.0258C31.297 44.9777 39.6247 43.4537 48.0068 43.4537C62.0496 43.4537 73.3165 46.9916 81.8075 54.0675C90.4074 61.0344 94.7073 70.0153 94.7073 81.0101C94.7073 88.6302 92.1491 95.8149 87.0328 102.564C81.9164 109.313 72.9899 116.879 60.2534 125.261H95.687V154Z" fill="white"/>
<path d="M95.687 154V155H96.687V154H95.687ZM6.69483 154H5.69483V155H6.69483V154ZM6.69483 128.364L6.11917 127.546L5.69483 127.845V128.364H6.69483ZM36.5766 107.136L37.1631 107.946L36.5766 107.136ZM52.4156 94.7263L53.0727 95.4801L52.4156 94.7263ZM59.9269 86.7252L59.0445 86.2546L59.032 86.2781L59.0207 86.3023L59.9269 86.7252ZM57.6408 74.9684L57.0775 75.7946L57.0906 75.8035L57.104 75.812L57.6408 74.9684ZM19.9212 83.786L19.1483 84.4205L19.7905 85.2028L20.565 84.5511L19.9212 83.786ZM1.95946 61.9053L1.22757 61.2239L0.631692 61.8639L1.18653 62.5398L1.95946 61.9053ZM23.0237 48.0258L23.3624 48.9667L23.3694 48.9641L23.0237 48.0258ZM81.8075 54.0675L81.1673 54.8358L81.178 54.8445L81.8075 54.0675ZM87.0328 102.564L87.8297 103.168L87.0328 102.564ZM60.2534 125.261L59.7037 124.426L56.9149 126.261H60.2534V125.261ZM95.687 125.261H96.687V124.261H95.687V125.261ZM95.687 153H6.69483V155H95.687V153ZM7.69483 154V128.364H5.69483V154H7.69483ZM7.27048 129.181C20.8784 119.601 30.8436 112.522 37.1631 107.946L35.9901 106.326C29.682 110.894 19.726 117.967 6.11917 127.546L7.27048 129.181ZM37.1631 107.946C43.4928 103.363 48.7978 99.2069 53.0727 95.4801L51.7585 93.9725C47.5424 97.6481 42.288 101.766 35.9901 106.326L37.1631 107.946ZM53.0727 95.4801C55.2088 93.6179 56.9232 92.0016 58.2066 90.6345C59.4723 89.2863 60.3815 88.1156 60.833 87.148L59.0207 86.3023C58.7102 86.9675 57.9865 87.9469 56.7485 89.2657C55.5281 90.5656 53.8679 92.1335 51.7585 93.9725L53.0727 95.4801ZM60.8092 87.1957C61.7699 85.3944 62.2332 83.3224 62.2332 81.0101H60.2332C60.2332 83.0521 59.8256 84.7901 59.0445 86.2546L60.8092 87.1957ZM62.2332 81.0101C62.2332 78.1137 60.8155 75.8033 58.1777 74.1247L57.104 75.812C59.2559 77.1815 60.2332 78.8989 60.2332 81.0101H62.2332ZM58.2042 74.1422C55.6073 72.3715 52.4049 71.5191 48.66 71.5191V73.5191C52.0998 73.5191 54.8846 74.2995 57.0775 75.7946L58.2042 74.1422ZM48.66 71.5191C38.1589 71.5191 28.3573 75.3804 19.2773 83.0208L20.565 84.5511C29.338 77.169 38.6956 73.5191 48.66 73.5191V71.5191ZM20.6941 83.1515L2.73239 61.2708L1.18653 62.5398L19.1483 84.4205L20.6941 83.1515ZM2.69136 62.5867C8.46055 56.3902 15.3469 51.8523 23.3624 48.9667L22.685 47.0849C14.3716 50.0777 7.21514 54.7928 1.22757 61.2239L2.69136 62.5867ZM23.3694 48.9641C31.5378 45.9547 39.7487 44.4537 48.0068 44.4537V42.4537C39.5007 42.4537 31.0561 44.0007 22.678 47.0874L23.3694 48.9641ZM48.0068 44.4537C61.8804 44.4537 72.9002 47.9464 81.1673 54.8357L82.4477 53.2992C73.7328 46.0368 62.2188 42.4537 48.0068 42.4537V44.4537ZM81.178 54.8445C89.5453 61.6231 93.7073 70.3193 93.7073 81.0101H95.7073C95.7073 69.7113 91.2694 60.4458 82.437 53.2904L81.178 54.8445ZM93.7073 81.0101C93.7073 88.3878 91.2359 95.3642 86.2358 101.96L87.8297 103.168C93.0623 96.2656 95.7073 88.8726 95.7073 81.0101H93.7073ZM86.2358 101.96C81.2225 108.573 72.4086 116.065 59.7037 124.426L60.8032 126.097C73.5713 117.694 82.6103 110.053 87.8297 103.168L86.2358 101.96ZM60.2534 126.261H95.687V124.261H60.2534V126.261ZM94.687 125.261V154H96.687V125.261H94.687Z" fill="black"/>
</svg>
